<?xml version="1.0" encoding="utf-8"?>
<!-- Generator: Adobe Illustrator 16.0.0, SVG Export Plug-In . SVG Version: 6.00 Build 0)  -->
<!DOCTYPE svg PUBLIC "-//W3C//DTD SVG 1.1//EN" "http://www.w3.org/Graphics/SVG/1.1/DTD/svg11.dtd">
<svg version="1.1" id="Capa_1" xmlns="http://www.w3.org/2000/svg" xmlns:xlink="http://www.w3.org/1999/xlink" x="0px" y="0px"
	 width="110px" height="16.3px" viewBox="0 0 110 16.3" style="enable-background:new 0 0 110 16.3;" xml:space="preserve">
<style type="text/css">
<![CDATA[
	.st0{fill:#FFFFFF;}
]]>
</style>
<g>
	<g>
		<path class="st0" d="M7,2.3C5.4,2.3,4.1,2.9,3.2,4c-1,1.1-1.4,2.6-1.4,4.6s0.4,3.5,1.4,4.6c1,1.1,2.2,1.7,4,1.7
			c1.1,0,2.2-0.1,3.6-0.6v1.5c-1.1,0.4-2.3,0.6-3.9,0.6c-2.2,0-3.9-0.7-5.1-2.1C0.6,12.8,0,10.9,0,8.4c0-1.5,0.3-2.9,0.8-4.1
			c0.6-1.1,1.4-2.1,2.5-2.8c1.1-0.7,2.3-1,3.9-1c1.5,0,2.9,0.3,4.1,0.8l-0.7,1.5C9.2,2.6,8.1,2.3,7,2.3z"/>
		<path class="st0" d="M15.6,16h-1.7V0h1.7V16z"/>
		<path class="st0" d="M21,4.7V12c0,1,0.3,1.7,0.7,2.1c0.4,0.4,1.1,0.7,1.9,0.7c1.2,0,2.1-0.3,2.6-1c0.6-0.7,0.8-1.7,0.8-3.2V4.7
			h1.7V16h-1.4l-0.3-1.5h-0.1c-0.4,0.6-0.8,1-1.5,1.2c-0.7,0.3-1.4,0.4-2.1,0.4c-1.4,0-2.3-0.3-3-1c-0.7-0.7-1-1.7-1-3.2V4.7H21z"/>
		<path class="st0" d="M37.8,4.6c1.5,0,2.6,0.6,3.5,1.5c0.8,1,1.2,2.5,1.2,4.3c0,1.8-0.4,3.3-1.2,4.3c-0.8,1-1.9,1.5-3.5,1.5
			c-0.7,0-1.4-0.1-2.1-0.4c-0.6-0.3-1.1-0.7-1.5-1.2h-0.1L33.7,16h-1.2V0h1.8v3.9c0,0.8,0,1.7-0.1,2.3h0.1
			C35.1,5.1,36.2,4.6,37.8,4.6z M37.5,5.9c-1.1,0-2.1,0.3-2.5,1c-0.6,0.7-0.8,1.8-0.8,3.3c0,1.5,0.3,2.8,0.8,3.5
			c0.6,0.7,1.4,1,2.5,1c1.1,0,1.8-0.4,2.3-1.1c0.6-0.8,0.8-1.9,0.8-3.3c0-1.5-0.3-2.6-0.8-3.3C39.3,6.3,38.6,5.9,37.5,5.9z"/>
		<path class="st0" d="M45.8,16V1h1.8v15H45.8z"/>
		<path class="st0" d="M59.5,16V8.7c0-1-0.3-1.7-0.7-2.1c-0.4-0.4-1.1-0.7-1.9-0.7c-1.2,0-2.1,0.3-2.6,1c-0.6,0.7-0.8,1.7-0.8,3.2
			V16h-1.7V4.7h1.4l0.3,1.5h0.1c0.3-0.4,0.7-1,1.4-1.2c0.7-0.3,1.4-0.4,2.1-0.4c1.4,0,2.3,0.3,3,1c0.7,0.7,1,1.7,1,3.2V16H59.5
			L59.5,16z"/>
		<path class="st0" d="M72.6,16V8.7c0-1-0.3-1.7-0.7-2.1c-0.4-0.4-1.1-0.7-1.9-0.7c-1.2,0-2.1,0.3-2.6,1c-0.6,0.7-0.8,1.7-0.8,3.2
			V16h-1.7V4.7h1.4l0.3,1.5h0.1c0.4-0.6,0.8-1,1.5-1.2c0.7-0.3,1.4-0.4,2.1-0.4c1.4,0,2.3,0.3,3,1c0.7,0.7,1,1.7,1,3.2V16H72.6
			L72.6,16z"/>
		<path class="st0" d="M87.8,10.4c0,1.8-0.4,3.3-1.4,4.3c-1,1-2.2,1.5-3.9,1.5c-1,0-1.9-0.3-2.6-0.7c-0.8-0.4-1.4-1.1-1.8-2.1
			c-0.4-0.8-0.7-1.9-0.7-3.2c0-1.8,0.4-3.3,1.4-4.3c1-1,2.2-1.5,3.9-1.5c1.5,0,2.9,0.6,3.7,1.5C87.2,7.2,87.8,8.6,87.8,10.4z
			 M79.1,10.4c0,1.4,0.3,2.5,0.8,3.3c0.6,0.8,1.4,1.1,2.5,1.1c1.1,0,1.9-0.4,2.5-1.1c0.6-0.7,0.8-1.8,0.8-3.3c0-1.4-0.3-2.5-0.8-3.3
			c-0.6-0.8-1.4-1.1-2.6-1.1c-1.1,0-1.9,0.4-2.5,1.1C79.5,7.9,79.1,9,79.1,10.4z"/>
		<path class="st0" d="M93.4,16L89.2,4.7H91l2.5,6.6c0.6,1.5,0.8,2.6,1,3h0.1c0.1-0.4,0.3-1.1,0.7-2.2c0.4-1.1,1.2-3.6,2.8-7.5h1.8
			L95.5,16H93.4z"/>
		<path class="st0" d="M108.6,16l-0.3-1.7h-0.1c-0.6,0.7-1.1,1.2-1.7,1.4c-0.6,0.3-1.2,0.4-2.1,0.4c-1.1,0-1.9-0.3-2.6-0.8
			c-0.7-0.6-1-1.4-1-2.5c0-2.3,1.8-3.5,5.5-3.6h1.9V8.6c0-0.8-0.1-1.5-0.6-1.9c-0.4-0.4-1-0.7-1.8-0.7c-1,0-2.1,0.3-3.2,0.8
			l-0.6-1.2c0.6-0.3,1.1-0.6,1.8-0.7c0.7-0.1,1.4-0.3,1.9-0.3c1.4,0,2.3,0.3,3,0.8c0.7,0.6,1,1.5,1,2.9V16H108.6L108.6,16z
			 M104.8,14.8c1.1,0,1.9-0.3,2.5-0.8c0.6-0.6,1-1.4,1-2.5v-1l-1.7,0.1c-1.4,0-2.3,0.3-2.9,0.7c-0.5,0.4-1,1-1,1.8
			c0,0.6,0.1,1.1,0.6,1.4C103.7,14.6,104.1,14.8,104.8,14.8z"/>
	</g>
</g>
<g>
</g>
<g>
</g>
<g>
</g>
<g>
</g>
<g>
</g>
<g>
</g>
<g>
</g>
<g>
</g>
<g>
</g>
<g>
</g>
<g>
</g>
<g>
</g>
<g>
</g>
<g>
</g>
<g>
</g>
</svg>
