<?xml version="1.0" encoding="utf-8"?>
<!-- Generator: Adobe Illustrator 16.0.0, SVG Export Plug-In . SVG Version: 6.00 Build 0)  -->
<!DOCTYPE svg PUBLIC "-//W3C//DTD SVG 1.1//EN" "http://www.w3.org/Graphics/SVG/1.1/DTD/svg11.dtd">
<svg version="1.1" id="Capa_1" xmlns="http://www.w3.org/2000/svg" xmlns:xlink="http://www.w3.org/1999/xlink" x="0px" y="0px"
	 width="249.999px" height="51.379px" viewBox="-1.489 0.579 249.999 51.379" enable-background="new -1.489 0.579 249.999 51.379"
	 xml:space="preserve">
<g>
	<g>
		<path fill="#FFFFFF" d="M66.913,13.479c-2.92,0-5.111,0.974-6.816,2.922c-1.704,1.946-2.434,4.624-2.434,8.032
			s0.73,6.085,2.434,8.034c1.705,1.947,3.896,2.92,7.06,2.92c1.947,0,3.894-0.244,6.329-0.973v2.679
			c-1.946,0.728-4.138,0.973-6.815,0.973c-3.895,0-6.817-1.217-9.007-3.649c-2.19-2.436-3.164-5.842-3.164-10.227
			c0-2.678,0.486-5.112,1.459-7.302c0.975-1.947,2.435-3.651,4.383-4.868c1.948-1.217,4.138-1.704,6.816-1.704
			c2.677,0,5.111,0.487,7.302,1.46l-1.217,2.678C70.808,13.967,68.862,13.479,66.913,13.479z"/>
		<path fill="#FFFFFF" d="M82.006,37.578h-2.921V9.341h2.921V37.578z"/>
		<path fill="#FFFFFF" d="M91.5,17.619v12.9c0,1.706,0.487,2.923,1.217,3.649c0.732,0.731,1.948,1.219,3.408,1.219
			c2.192,0,3.652-0.486,4.626-1.704c0.973-1.216,1.46-2.92,1.46-5.599V17.619h2.92v19.959h-2.434l-0.486-2.678h-0.244
			c-0.73,0.975-1.46,1.702-2.678,2.192c-1.216,0.483-2.434,0.728-3.65,0.728c-2.434,0-4.139-0.484-5.356-1.703
			c-1.217-1.217-1.704-2.92-1.704-5.599v-12.9H91.5z"/>
		<path fill="#FFFFFF" d="M121.198,17.375c2.678,0,4.625,0.973,6.086,2.678c1.46,1.703,2.19,4.381,2.19,7.547
			c0,3.164-0.73,5.843-2.19,7.544c-1.462,1.706-3.408,2.679-6.086,2.679c-1.217,0-2.434-0.244-3.651-0.729
			c-0.973-0.49-1.948-1.219-2.678-2.191h-0.243l-0.729,2.676h-2.191V9.341h3.164v6.816c0,1.461,0,2.92-0.243,4.137h0.243
			C116.33,18.348,118.277,17.375,121.198,17.375z M120.711,19.809c-1.947,0-3.651,0.486-4.381,1.703
			c-0.974,1.217-1.461,3.167-1.461,5.846c0,2.676,0.487,4.868,1.461,6.085c0.974,1.218,2.435,1.701,4.381,1.701
			c1.947,0,3.166-0.728,4.139-1.944c0.972-1.463,1.458-3.406,1.458-5.842c0-2.678-0.486-4.628-1.458-5.846
			C123.877,20.539,122.658,19.809,120.711,19.809z"/>
		<path fill="#36C6D3" d="M135.316,37.578V11.045h3.164v26.533H135.316z"/>
		<path fill="#36C6D3" d="M159.414,37.578V24.679c0-1.706-0.482-2.923-1.219-3.653c-0.726-0.73-1.942-1.217-3.404-1.217
			c-2.188,0-3.65,0.486-4.623,1.703c-0.977,1.217-1.462,2.922-1.462,5.602v10.465h-2.923V17.619h2.435l0.488,2.676h0.245
			c0.484-0.73,1.217-1.703,2.435-2.19c1.218-0.486,2.435-0.73,3.65-0.73c2.435,0,4.137,0.486,5.354,1.703
			c1.217,1.217,1.701,2.922,1.701,5.602v12.898H159.414L159.414,37.578z"/>
		<path fill="#36C6D3" d="M182.541,37.578V24.679c0-1.706-0.484-2.923-1.217-3.653c-0.729-0.73-1.944-1.217-3.405-1.217
			c-2.19,0-3.653,0.486-4.626,1.703c-0.975,1.217-1.462,2.922-1.462,5.602v10.465h-2.922V17.619h2.435l0.487,2.676h0.245
			c0.728-0.973,1.46-1.703,2.677-2.19c1.217-0.486,2.435-0.73,3.651-0.73c2.435,0,4.137,0.486,5.354,1.703
			c1.217,1.217,1.706,2.922,1.706,5.602v12.898H182.541L182.541,37.578z"/>
		<path fill="#36C6D3" d="M209.318,27.599c0,3.164-0.729,5.843-2.435,7.544c-1.704,1.706-3.896,2.678-6.815,2.678
			c-1.707,0-3.407-0.484-4.625-1.218c-1.459-0.728-2.435-1.942-3.166-3.649c-0.729-1.461-1.217-3.405-1.217-5.597
			c0-3.167,0.731-5.846,2.435-7.548c1.706-1.704,3.896-2.678,6.817-2.678c2.678,0,5.111,0.974,6.571,2.678
			C208.345,22,209.318,24.434,209.318,27.599z M193.984,27.599c0,2.435,0.483,4.382,1.459,5.843
			c0.975,1.459,2.435,1.945,4.381,1.945c1.949,0,3.406-0.729,4.384-1.945c0.974-1.217,1.459-3.167,1.459-5.843
			c0-2.435-0.485-4.382-1.459-5.844c-0.978-1.461-2.435-1.947-4.628-1.947c-1.944,0-3.406,0.73-4.379,1.947
			C194.711,23.217,193.984,25.165,193.984,27.599z"/>
		<path fill="#36C6D3" d="M219.298,37.578l-7.546-19.959h3.166l4.38,11.683c0.974,2.68,1.463,4.626,1.706,5.358h0.242
			c0.242-0.732,0.486-1.951,1.217-3.896c0.732-1.948,2.191-6.33,4.869-13.145h3.166l-7.549,19.959H219.298z"/>
		<path fill="#36C6D3" d="M246.077,37.578l-0.488-2.918h-0.242c-0.975,1.215-1.948,2.188-2.922,2.434
			c-0.973,0.484-2.188,0.729-3.649,0.729c-1.947,0-3.407-0.485-4.625-1.461c-1.217-0.974-1.707-2.434-1.707-4.38
			c0-4.14,3.168-6.086,9.736-6.33h3.409v-1.217c0-1.461-0.242-2.678-0.976-3.408c-0.728-0.731-1.701-1.217-3.161-1.217
			c-1.706,0-3.65,0.486-5.601,1.461l-0.975-2.192c0.975-0.486,1.949-0.973,3.166-1.217c1.217-0.242,2.436-0.486,3.408-0.486
			c2.435,0,4.137,0.486,5.354,1.461c1.217,0.973,1.705,2.676,1.705,5.111v13.63H246.077L246.077,37.578z M239.26,35.388
			c1.947,0,3.408-0.485,4.383-1.46c0.971-0.975,1.703-2.436,1.703-4.38v-1.706l-2.922,0.242c-2.434,0-4.138,0.49-5.113,1.218
			c-0.972,0.731-1.701,1.706-1.701,3.166c0,0.975,0.242,1.948,0.975,2.435C237.311,35.143,238.044,35.388,239.26,35.388z"/>
	</g>
	<g>
		<path fill="#36C6D3" d="M34.05,18.348c0,63.29,5.844,17.771-17.769,17.771c-9.737,0-17.77-8.033-17.77-17.771
			c0-9.736,8.032-17.769,17.77-17.769C26.018,0.579,34.05,8.611,34.05,18.348z"/>
		<circle fill="#FFFFFF" stroke="#36C6D3" stroke-width="5" stroke-miterlimit="10" cx="16.767" cy="18.835" r="15.092"/>
		<circle fill="none" stroke="#36C6D3" stroke-width="3" stroke-miterlimit="10" cx="16.767" cy="18.835" r="5.112"/>
	</g>
</g>
</svg>
